<svg id="Layer_1" data-name="Layer 1" xmlns="http://www.w3.org/2000/svg" viewBox="0 0 877.93 221.68"><defs><style>.cls-1{fill:#233357;}.cls-2{fill:#f2b138;}</style></defs><path class="cls-1" d="M175.3,400.6c0,13.82-5.29,24.5-15.73,31.74C149.94,439.08,137,442.5,121,442.5c-18.24,0-32.55-4-42.55-12h0c-9.15-7.31-14.52-17.95-16-31.62l-.93-9H91.88l.47,7.65c.31,5.18,2.79,9.06,7.59,11.88s12,4.27,21.21,4.27c7.74,0,13.5-.8,17.14-2.37,4.27-1.85,5.76-3.49,6.25-4.53a12.76,12.76,0,0,0,1.21-5.45,6,6,0,0,0-.49-2.61,5.44,5.44,0,0,0-1.81-1.88,46,46,0,0,0-12.56-5.67c-3.34-1-9.65-2.62-18.76-4.69a134.51,134.51,0,0,1-20.41-6.39A47.66,47.66,0,0,1,74.2,368.73C68.74,363.4,66,356.09,66,347.05c0-12.13,4.66-22.07,13.86-29.55,8.85-7.15,21.69-10.77,38.19-10.77,16.74,0,30.06,4,39.61,12,9.27,7.56,14.22,17.3,14.71,28.93l.47,8.56H143.37l-.93-7.17a13.67,13.67,0,0,0-3.07-7.05c-1.71-2.12-5-3.9-9.69-5.29A45.46,45.46,0,0,0,117,335.23a39.26,39.26,0,0,0-12.47,1.64,22.06,22.06,0,0,0-6.7,3.3,6.46,6.46,0,0,0-2,2.86l0,.1a15.45,15.45,0,0,0-.73,3.71,3.34,3.34,0,0,0,.92,2.62l0,0a19.84,19.84,0,0,0,6.52,3.93c2.91,1.12,6.91,2.4,11.86,3.78l6.41,1.56,8.21,1.92,3.92,1.07c6.06,1.66,9.82,2.76,11.52,3.37a64.78,64.78,0,0,1,14.57,7,35.26,35.26,0,0,1,12.12,12.24A31.89,31.89,0,0,1,175.3,400.6Z" transform="translate(-61.53 -220.82)"/><rect class="cls-1" x="119.57" y="88.18" width="29.55" height="132.97"/><polygon class="cls-1" points="277.22 88.18 277.22 221.15 249.52 221.15 189.72 139.35 189.72 221.15 160.17 221.15 160.17 88.18 187.68 88.18 247.67 169.67 247.67 88.18 277.22 88.18"/><polygon class="cls-1" points="405.32 88.18 405.32 221.15 375.77 221.15 375.77 139.35 315.96 221.15 288.27 221.15 288.27 88.18 317.82 88.18 317.82 169.67 377.81 88.18 405.32 88.18"/><polygon class="cls-2" points="477.28 88.4 451.66 151.55 439.93 151.55 439.87 151.39 414.4 88.4 428.37 88.4 428.43 88.56 445.8 132.26 463.22 88.4 477.28 88.4"/><polygon class="cls-2" points="492.97 100.97 492.97 113.56 518.55 113.56 518.55 126.3 492.97 126.3 492.97 138.89 528.24 138.89 528.24 151.55 480.06 151.55 480.06 88.4 528.24 88.4 528.24 100.97 492.97 100.97"/><path class="cls-2" d="M646.81,353c0,6.46-2.47,11.45-7.34,14.83-4.55,3.19-10.72,4.8-18.33,4.8-8.69,0-15.49-1.9-20.21-5.66a18.75,18.75,0,0,1-5.1-6.31,24.7,24.7,0,0,1-2.39-8.57l-.37-3.59h13.26l.19,3a7.58,7.58,0,0,0,4,6.35c2.49,1.44,6.08,2.17,10.67,2.17,3.85,0,6.75-.4,8.61-1.21s3-1.65,3.4-2.55a6.85,6.85,0,0,0,.66-3,3.5,3.5,0,0,0-.32-1.58,3.31,3.31,0,0,0-1.11-1.19,22.87,22.87,0,0,0-6.3-2.85c-1.63-.51-4.71-1.28-9.16-2.29a66.33,66.33,0,0,1-9.81-3.07A22.44,22.44,0,0,1,599,337c-2.53-2.47-3.81-5.85-3.81-10a17,17,0,0,1,6.46-13.79c4.17-3.37,10.25-5.07,18.1-5.07S634,310,638.47,313.79a17.83,17.83,0,0,1,6.89,13.52l.18,3.41H632.65l-.37-2.85a7.31,7.31,0,0,0-1.64-3.79,10.2,10.2,0,0,0-5.06-2.81,22.84,22.84,0,0,0-6.39-.75,20,20,0,0,0-6.3.83,11.43,11.43,0,0,0-3.49,1.75,3.83,3.83,0,0,0-1.19,1.74,8.27,8.27,0,0,0-.42,2.65,1.9,1.9,0,0,0,.69,1.19,10.45,10.45,0,0,0,3.41,2.07c1.44.55,3.41,1.18,5.83,1.86l3.14.76,4,.94,1.88.51c2.93.8,4.74,1.33,5.55,1.62a31.08,31.08,0,0,1,6.93,3.34,16.51,16.51,0,0,1,5.65,5.69A14.87,14.87,0,0,1,646.81,353Z" transform="translate(-61.53 -220.82)"/><polygon class="cls-2" points="638.49 88.4 638.49 100.97 618.68 100.97 618.68 151.55 605.86 151.55 605.86 100.97 586.05 100.97 586.05 88.4 638.49 88.4"/><polygon class="cls-2" points="703.43 88.4 703.43 151.55 690.6 151.55 690.6 109.79 672.83 129.57 672.65 129.37 654.72 109.7 654.72 151.55 641.81 151.55 641.81 88.4 653.99 88.4 654.06 88.49 672.75 110.03 691.25 88.4 703.43 88.4"/><polygon class="cls-2" points="725.61 100.97 725.61 113.56 751.2 113.56 751.2 126.3 725.61 126.3 725.61 138.89 760.89 138.89 760.89 151.55 712.7 151.55 712.7 88.4 760.89 88.4 760.89 100.97 725.61 100.97"/><polygon class="cls-2" points="822.17 88.4 822.17 151.55 809.81 151.55 809.73 151.45 779.67 110.33 779.67 151.55 766.76 151.55 766.76 88.4 779.04 88.4 779.11 88.51 809.26 129.46 809.26 88.4 822.17 88.4"/><polygon class="cls-2" points="877.93 88.4 877.93 100.97 858.13 100.97 858.13 151.55 845.3 151.55 845.3 100.97 825.5 100.97 825.5 88.4 877.93 88.4"/><path class="cls-2" d="M543,407.87v1.71c0,1.26-.08,2.75-.25,4.45a30.69,30.69,0,0,1-8.57,18.34c-6,6.31-13.76,9.51-23.13,9.51s-17.13-3.2-23.22-9.51a30.2,30.2,0,0,1-6.6-10.24A34.4,34.4,0,0,1,479,409.58c0-9,3-16.7,8.91-22.78,6-6.25,13.75-9.43,23.13-9.43s17.16,3.18,23.13,9.43a30.59,30.59,0,0,1,5.82,8.48l2.12,4.61H528.19l-1-1.47a19.3,19.3,0,0,0-2.1-2.78c-3.39-3.72-8.11-5.61-14-5.61s-10.51,1.89-14,5.61-5.11,8.26-5.11,13.94,1.72,10.41,5.11,14,8.17,5.53,14,5.53,10.67-1.86,14-5.53a18.75,18.75,0,0,0,4-6.72H508.35V404.4h34.49Z" transform="translate(-61.53 -220.82)"/><polygon class="cls-2" points="548.98 157.4 548.98 220.55 536.16 220.55 536.16 178.79 518.39 198.57 518.2 198.37 500.28 178.7 500.28 220.55 487.37 220.55 487.37 157.4 499.55 157.4 499.62 157.49 518.3 179.03 536.8 157.4 548.98 157.4"/><path class="cls-2" d="M671.27,416.46a17.11,17.11,0,0,0-6.22-7.76c3-3,4.54-7.16,4.54-12.29a16.7,16.7,0,0,0-4.83-12.25c-3.83-3.94-9.33-5.94-16.33-5.94H619.79v63.15h30.08a28.72,28.72,0,0,0,9.51-1.37,19.12,19.12,0,0,0,9.77-6.25,16.61,16.61,0,0,0,3.33-10.48A17.08,17.08,0,0,0,671.27,416.46ZM650.64,428.8H632.7V415.87h17.17c3.49,0,6.09.75,7.74,2.23a6,6,0,0,1,2,4.66,5.07,5.07,0,0,1-1.94,4.31C656.23,428.22,653.85,428.8,650.64,428.8ZM632.7,390.71h16.41c2.69,0,4.72.69,6,2.05a5,5,0,0,1,1.14,1.8,7.09,7.09,0,0,1,.41,2.78,5.94,5.94,0,0,1-.57,2.62c-1.14,2.38-3.73,3.59-7.68,3.59H632.7Z" transform="translate(-61.53 -220.82)"/><polygon class="cls-2" points="669.09 157.4 669.09 220.55 656.26 220.55 656.26 195.3 629.73 195.3 629.73 220.55 616.82 220.55 616.82 157.4 629.73 157.4 629.73 182.56 656.26 182.56 656.26 157.4 669.09 157.4"/><path class="cls-2" d="M254,220.84l-.18,2.21c-4.09,50.4-20.43,63.68-33.42,65.94-8.63,1.5-16.51-1.57-20.73-3.74a82.16,82.16,0,0,0-3.67,17c0,.09,0,.1-.07.05-.48-.66-2.05-2.69-6.61-7.7a78.29,78.29,0,0,0-7.52-7.39,29.19,29.19,0,0,1-2.78,3.19,22.6,22.6,0,0,1-11.85,6.45c-13.15,2.29-27-9-41.27-33.43l-1.12-1.93s0,0,0,0l2.13-.65a106.5,106.5,0,0,1,11.34-2.58c12.73-2.21,29.86-3,39.12,5.62,5,4.64,7.05,11.45,6.17,20.23a65,65,0,0,1,10.1,10.25,75.57,75.57,0,0,1,2.6-11.14l-.1-.08-.19-.31C189.34,272.07,188,262.1,192,253.2c10.09-22.37,50.74-30.49,58.79-31.89l1-.16,2.2-.33Z" transform="translate(-61.53 -220.82)"/></svg>